<?xml version="1.0" encoding="UTF-8" standalone="no"?><!-- Generator: Gravit.io --><svg xmlns="http://www.w3.org/2000/svg" xmlns:xlink="http://www.w3.org/1999/xlink" style="isolation:isolate" viewBox="241 245.126 518.158 517.893" width="518.158pt" height="517.893pt"><g><g><linearGradient id="_lgradient_1" x1="0.13716500994035785" y1="1.2308181818181818" x2="0.8676182902584493" y2="0.4587565515994937" gradientTransform="matrix(518.158,0,0,517.893,241,245.126)" gradientUnits="userSpaceOnUse"><stop offset="0%" stop-opacity="1" style="stop-color:rgb(89,43,71)"/><stop offset="100%" stop-opacity="1" style="stop-color:rgb(255,85,22)"/></linearGradient><path d=" M 326.523 245.126 L 673.85 245.81 C 720.952 245.903 759.178 284.22 759.158 331.322 L 759.014 677.843 C 758.994 724.946 720.737 763.112 673.635 763.019 L 326.308 762.334 C 279.206 762.241 240.98 723.925 241 676.822 L 241.144 330.301 C 241.164 283.199 279.421 245.033 326.523 245.126 Z  M 615.021 658.921 C 686.15 644.467 733.676 583.067 733.676 507.289 C 733.676 496.953 725.036 488.34 714.669 488.34 L 577.302 488.34 C 602.788 554.662 592.421 542.173 666.72 542.173 C 659.199 578.873 630.037 601.109 594.367 604.559 L 615.021 658.921 L 615.021 658.921 L 615.021 658.921 Z  M 524.208 426.242 C 539.438 415.124 558.509 408.668 580.145 408.668 C 624.206 408.668 645.373 435.799 658.332 435.799 C 670.859 435.799 695.482 415.128 705.849 407.806 C 676.043 370.77 627.23 351.39 580.145 351.39 C 551.496 351.39 525.411 358.121 502.162 370.88 L 524.208 426.242 L 524.208 426.242 L 524.208 426.242 Z  M 432.052 411.679 L 334.994 659.541 L 266.482 659.541 L 388.574 348.604 L 451.376 348.604 C 465.43 348.604 478.605 357.487 483.875 370.813 L 595.865 658.921 L 524.208 658.921 L 432.052 411.679 L 432.052 411.679 Z " fill-rule="evenodd" fill="url(#_lgradient_1)"/></g></g></svg>
